<svg width="64" height="64" viewBox="0 0 64 64" fill="none" xmlns="http://www.w3.org/2000/svg">
<path fill-rule="evenodd" clip-rule="evenodd" d="M1.96277 30.2664C1.95656 30.3757 2.04375 30.4679 2.1532 30.4679H14.4102C14.4785 30.4679 14.5417 30.4314 14.5759 30.3722L18.0707 24.3191C18.1669 24.1449 18.2664 23.9726 18.369 23.8025L23.2789 15.2982C23.3275 15.2141 23.3053 15.1071 23.2281 15.0482C20.3364 12.8399 18.3019 9.56621 17.7106 5.81292C17.6898 5.68082 17.5445 5.60743 17.4276 5.67229C8.65093 10.5405 2.5648 19.6698 1.96277 30.2664ZM15.5701 32.4776C15.6043 32.4184 15.6675 32.3819 15.7359 32.3819H15.914C16.0179 32.3819 16.1027 32.4653 16.1064 32.5692C16.3012 38.1043 19.3244 42.9195 23.7749 45.6141C23.9448 45.7169 23.8736 45.9894 23.675 45.9894H8.10055C7.95323 45.9894 7.86116 45.8299 7.93483 45.7023L15.5701 32.4776ZM13.2498 32.669C13.3235 32.5414 13.2314 32.3819 13.0841 32.3819H2.1098C2.00318 32.3819 1.91706 32.4693 1.91906 32.5759C2.00894 37.3634 3.2171 41.8774 5.29329 45.8675C5.36256 46.0007 5.55093 46.0038 5.62598 45.8738L13.2498 32.669ZM45.7881 32.3819C45.8958 32.3819 45.9824 32.4715 45.978 32.5792C45.6742 40.0366 39.5324 45.9894 31.9999 45.9894C24.4675 45.9894 18.3256 40.0366 18.0218 32.5792C18.0174 32.4715 18.104 32.3819 18.2117 32.3819H45.7881ZM45.8822 30.2559C45.8962 30.369 45.8074 30.4679 45.6936 30.4679H18.3063C18.1924 30.4679 18.1036 30.369 18.1177 30.2559C18.3414 28.457 18.9066 26.764 19.7466 25.2439L20.0093 24.7889C22.4546 20.7315 26.9011 18.0164 31.9824 18.0102L32 18.0102L32.0176 18.0102C37.1041 18.0164 41.5545 20.7371 43.9982 24.8014L44.2462 25.2311C45.09 26.7544 45.6579 28.4519 45.8822 30.2559ZM47.8935 32.5692C47.8971 32.4653 47.9819 32.3819 48.0859 32.3819H48.2643C48.3327 32.3819 48.3958 32.4184 48.43 32.4776L56.0653 45.7023C56.139 45.8299 56.0469 45.9894 55.8996 45.9894H40.3248C40.1263 45.9894 40.0551 45.7169 40.2249 45.6141C44.6754 42.9195 47.6987 38.1043 47.8935 32.5692ZM50.7504 32.669C50.6767 32.5414 50.7688 32.3819 50.9161 32.3819H61.8902C61.9968 32.3819 62.0829 32.4693 62.0809 32.5759C61.9911 37.3633 60.7829 41.8772 58.7068 45.8674C58.6375 46.0005 58.4491 46.0037 58.3741 45.8737L50.7504 32.669ZM62.0372 30.2664C62.0434 30.3757 61.9563 30.4679 61.8468 30.4679H49.59C49.5216 30.4679 49.4585 30.4314 49.4243 30.3722L45.9222 24.3065C45.8305 24.1408 45.7358 23.9768 45.6383 23.8148L40.7212 15.2981C40.6727 15.2141 40.6949 15.107 40.772 15.0481C43.6637 12.8399 45.6982 9.5662 46.2894 5.81296C46.3103 5.68086 46.4555 5.60746 46.5725 5.67233C55.3491 10.5405 61.4352 19.6698 62.0372 30.2664ZM31.1869 48.0948C31.1869 47.9891 31.1012 47.9034 30.9955 47.9034H6.80076C6.65051 47.9034 6.55917 48.0687 6.64016 48.1952C11.8164 56.2836 20.7563 61.7318 30.9899 62.0694C31.0975 62.0729 31.1869 61.9864 31.1869 61.8787V54.9932C31.1869 54.8875 31.1012 54.8018 30.9955 54.8018H24.2392H23.4737C23.3681 54.8018 23.2824 54.7162 23.2824 54.6104V53.0792C23.2824 52.9735 23.3681 52.8878 23.4737 52.8878H24.2392H30.9955C31.1012 52.8878 31.1869 52.8021 31.1869 52.6964V48.0948ZM33.2993 62.0584C33.191 62.063 33.1005 61.9762 33.1005 61.8678V54.9932C33.1005 54.8875 33.1862 54.8018 33.2919 54.8018H40.0482H40.8137C40.9194 54.8018 41.0051 54.7162 41.0051 54.6104V53.0792C41.0051 52.9735 40.9194 52.8878 40.8137 52.8878H40.0482H33.2919C33.1862 52.8878 33.1005 52.8021 33.1005 52.6964V48.0948C33.1005 47.9891 33.1862 47.9034 33.2919 47.9034H57.1992C57.3495 47.9034 57.4408 48.0686 57.3598 48.1952C52.2324 56.2074 43.4119 61.6288 33.2993 62.0584ZM37.9726 14.3649C38.0261 14.4576 37.9932 14.5763 37.8988 14.6267C36.145 15.562 34.1431 16.0933 32.0174 16.0961L31.9999 16.0961L31.9826 16.0961C29.8569 16.0933 27.8551 15.562 26.1014 14.6267C26.0069 14.5764 25.974 14.4576 26.0276 14.3649L31.8344 4.3073C31.908 4.17972 32.0921 4.17972 32.1658 4.3073L37.9726 14.3649ZM39.562 13.2903C39.62 13.3907 39.7532 13.417 39.8436 13.3445C42.4166 11.2828 44.1602 8.22885 44.4943 4.76295C44.502 4.68248 44.4575 4.60603 44.3839 4.57272C40.9934 3.03949 37.2679 2.11644 33.3475 1.94365C33.1975 1.93704 33.1005 2.09869 33.1755 2.22872L39.562 13.2903ZM30.6527 1.94364C30.8027 1.93703 30.8997 2.09868 30.8246 2.22871L24.4381 13.2904C24.3802 13.3908 24.247 13.4171 24.1565 13.3446C21.5835 11.2828 19.8399 8.22886 19.5058 4.76292C19.498 4.68245 19.5425 4.60599 19.6162 4.57269C23.0067 3.03945 26.7322 2.11641 30.6527 1.94364ZM0 32C0 14.3267 14.3271 0 32 0C49.6729 0 64 14.3267 64 32C64 49.6733 49.6729 64 32 64C14.3271 64 0 49.6733 0 32Z" fill="#7C7480"/>
</svg>
