<svg width="32" height="32" viewBox="0 0 32 32" fill="none" xmlns="http://www.w3.org/2000/svg">
<mask id="path-1-inside-1" fill="white">
<path fill-rule="evenodd" clip-rule="evenodd" d="M16 32C24.8366 32 32 24.8366 32 16C32 7.16344 24.8366 0 16 0C15.2727 0 14.5567 0.0485286 13.8551 0.142524C19.6017 1.03432 24 6.00352 24 12C24 18.6274 18.6274 24 12 24C6.00352 24 1.03432 19.6017 0.142524 13.8551C0.0485286 14.5567 0 15.2727 0 16C0 24.8366 7.16344 32 16 32Z"/>
</mask>
<path d="M13.8551 0.142524L13.6559 -1.34419L13.6251 1.62478L13.8551 0.142524ZM0.142524 13.8551L1.62478 13.6251L-1.34419 13.6559L0.142524 13.8551ZM30.5 16C30.5 24.0081 24.0081 30.5 16 30.5V33.5C25.665 33.5 33.5 25.665 33.5 16H30.5ZM16 1.5C24.0081 1.5 30.5 7.99187 30.5 16H33.5C33.5 6.33502 25.665 -1.5 16 -1.5V1.5ZM14.0543 1.62924C14.6901 1.54407 15.3395 1.5 16 1.5V-1.5C15.2059 -1.5 14.4234 -1.44701 13.6559 -1.34419L14.0543 1.62924ZM13.6251 1.62478C18.652 2.4049 22.5 6.75447 22.5 12H25.5C25.5 5.25257 20.5513 -0.336266 14.0852 -1.33973L13.6251 1.62478ZM22.5 12C22.5 17.799 17.799 22.5 12 22.5V25.5C19.4558 25.5 25.5 19.4558 25.5 12H22.5ZM12 22.5C6.75447 22.5 2.4049 18.652 1.62478 13.6251L-1.33973 14.0852C-0.336266 20.5513 5.25257 25.5 12 25.5V22.5ZM1.5 16C1.5 15.3395 1.54407 14.6901 1.62924 14.0543L-1.34419 13.6559C-1.44701 14.4234 -1.5 15.2059 -1.5 16H1.5ZM16 30.5C7.99187 30.5 1.5 24.0081 1.5 16H-1.5C-1.5 25.665 6.33502 33.5 16 33.5V30.5Z" fill="white" mask="url(#path-1-inside-1)"/>
</svg>
