<svg width="40" height="40" viewBox="0 0 40 40" fill="none" xmlns="http://www.w3.org/2000/svg">
<path fill-rule="evenodd" clip-rule="evenodd" d="M32 19.9834C32 20.7949 31.9174 21.6053 31.7551 22.3953C31.5969 23.1665 31.3625 23.9236 31.0555 24.6474C30.7555 25.3584 30.3834 26.0435 29.9486 26.6824C29.5203 27.3173 29.0268 27.913 28.4848 28.456C27.9416 28.9966 27.3439 29.4886 26.7093 29.9188C26.0683 30.3505 25.3822 30.7221 24.6708 31.0235C23.946 31.3289 23.1871 31.563 22.4165 31.7209C21.6255 31.8836 20.8122 31.9667 19.9995 31.9667C19.1861 31.9667 18.3728 31.8836 17.5829 31.7209C16.8112 31.563 16.0524 31.3289 15.3281 31.0235C14.6168 30.7221 13.93 30.3505 13.289 29.9188C12.6544 29.4887 12.0567 28.9966 11.5147 28.456C10.9721 27.913 10.4787 27.3173 10.0497 26.6824C9.61729 26.0435 9.24459 25.3583 8.94342 24.6474C8.63634 23.9236 8.4014 23.1664 8.2426 22.3953C8.08206 21.6053 8 20.7949 8 19.9834C8 19.1712 8.08201 18.3591 8.24264 17.5708C8.40145 16.7996 8.63639 16.0413 8.94347 15.3187C9.24464 14.6072 9.61734 13.9215 10.0498 13.2825C10.4787 12.6471 10.9721 12.0526 11.5147 11.509C12.0567 10.9683 12.6544 10.4774 13.289 10.048C13.9301 9.61435 14.6168 9.24284 15.3282 8.94089C16.0524 8.63481 16.8112 8.40021 17.583 8.24342C18.3729 8.08194 19.1862 8 19.9995 8C20.8122 8 21.6255 8.08194 22.4166 8.24342C23.1871 8.40026 23.946 8.63486 24.6708 8.94089C25.3822 9.24279 26.0684 9.61435 26.7094 10.048C27.344 10.4774 27.9417 10.9683 28.4849 11.509C29.0269 12.0526 29.5203 12.6471 29.9486 13.2825C30.3834 13.9215 30.7555 14.6073 31.0555 15.3187C31.3625 16.0413 31.5969 16.7996 31.7551 17.5708C31.9174 18.3591 32 19.1712 32 19.9834ZM15.627 10.7273C12.7692 12.0748 10.6363 14.7044 9.97117 17.8734L9.98102 17.8735C10.3313 17.8767 14.5636 17.9159 19.4322 16.6241C17.6585 13.4773 15.7635 10.9093 15.627 10.7273ZM9.75965 19.6569C9.94128 19.6639 15.0047 19.7774 20.2813 18.1999C20.5748 18.7745 20.8556 19.3573 21.1128 19.9389C20.978 19.9775 20.842 20.0173 20.7085 20.0618C15.1781 21.8475 12.3736 26.8158 12.3771 26.8211C10.7446 25.0089 9.75143 22.6123 9.75143 19.9834C9.75143 19.9075 9.75393 19.8333 9.75646 19.7584C9.75759 19.7248 9.75873 19.691 9.75965 19.6569ZM26.7674 12.303C24.9632 10.7144 22.5941 9.75074 19.9995 9.75074C19.1668 9.75074 18.3587 9.85139 17.5847 10.0375L17.6013 10.0597C17.844 10.3843 19.7114 12.8818 21.4157 16.0068C25.2509 14.5711 26.7181 12.3768 26.7665 12.3044L26.7674 12.303ZM21.7863 21.6425L21.8112 21.6346C23.2533 25.377 23.8486 28.5109 24.0004 29.405C22.7704 29.9275 21.4186 30.216 19.9994 30.216C17.6228 30.216 15.4406 29.4009 13.7008 28.0499C13.7222 28.0036 15.6968 23.7617 21.7433 21.6568C21.7575 21.6516 21.7719 21.6471 21.7863 21.6425ZM25.7261 28.47C28.0272 26.9194 29.6614 24.4572 30.1173 21.6053C29.9064 21.5374 27.0392 20.631 23.7314 21.1606C25.0757 24.8492 25.6218 27.8533 25.7261 28.47ZM22.8853 19.0156C22.6727 18.5164 22.4423 18.0197 22.2045 17.5317C26.2246 15.8922 27.8731 13.5405 27.913 13.4835L27.9136 13.4826C29.3515 15.2257 30.2205 17.4521 30.244 19.878C30.2411 19.8774 30.2371 19.8766 30.2318 19.8755C29.9628 19.8195 26.5599 19.1118 23.1068 19.5457C23.0348 19.3702 22.961 19.1946 22.8853 19.0156Z" fill="#171719"/>
</svg>
