<svg width="40" height="40" viewBox="0 0 40 40" fill="none" xmlns="http://www.w3.org/2000/svg">
<path d="M20 8H24C26.2091 8 28 9.79086 28 12V12C28 14.2091 26.2091 16 24 16H20V8Z" stroke="black" stroke-width="2"/>
<path d="M12 12C12 9.79086 13.7909 8 16 8H20V16H16C13.7909 16 12 14.2091 12 12V12Z" stroke="black" stroke-width="2"/>
<path d="M12 20C12 17.7909 13.7909 16 16 16H20V24H16C13.7909 24 12 22.2091 12 20V20Z" stroke="black" stroke-width="2"/>
<rect x="20" y="16" width="8" height="8" rx="4" stroke="black" stroke-width="2"/>
<path d="M12 28C12 25.7909 13.7909 24 16 24H20V28C20 30.2091 18.2091 32 16 32V32C13.7909 32 12 30.2091 12 28V28Z" stroke="black" stroke-width="2"/>
</svg>
