<svg width="40" height="40" viewBox="0 0 40 40" fill="none" xmlns="http://www.w3.org/2000/svg">
<path d="M20 8C13.3832 8 8 13.3831 8 20C8 26.6169 13.3832 32 20 32C26.6168 32 32 26.6168 32 20C32 13.3832 26.6168 8 20 8ZM27.0103 15.8284L29.3965 14.2111C30.1598 15.4455 30.6872 16.8404 30.9142 18.3328L28.0467 18.644C27.8764 17.6303 27.5187 16.6795 27.0103 15.8284ZM12.9897 24.1716L10.6035 25.7889C9.84023 24.5545 9.31284 23.1596 9.08577 21.6672L11.9533 21.356C12.1236 22.3697 12.4813 23.3205 12.9897 24.1716ZM13.8062 16.3331L16.1892 17.9678C15.8647 18.574 15.68 19.2657 15.68 20C15.68 20.6673 15.8322 21.2995 16.1035 21.8643L13.6514 23.3934C13.1085 22.3817 12.8 21.2262 12.8 20C12.8 18.6617 13.1675 17.4078 13.8062 16.3331ZM20 23.36C18.1474 23.36 16.64 21.8528 16.64 20C16.64 18.1472 18.1474 16.64 20 16.64C21.8526 16.64 23.36 18.1472 23.36 20C23.36 21.8528 21.8526 23.36 20 23.36ZM20.48 15.7073V12.8164C22.5724 12.9549 24.4232 13.9907 25.6499 15.5421L23.2661 17.1773C22.5721 16.3754 21.5891 15.8305 20.48 15.7073ZM20.48 11.8546V8.97112C22 9.03644 23.4412 9.4103 24.7425 10.0319L23.3918 12.5792C22.496 12.1681 21.5135 11.9148 20.48 11.8546ZM19.52 11.8546C18.1851 11.9324 16.9355 12.3326 15.8478 12.9782L14.2369 10.5874C15.7876 9.63443 17.5904 9.05415 19.52 8.97112V11.8546H19.52ZM19.52 12.8164V15.7073C18.4109 15.8306 17.4279 16.3754 16.7338 17.1774L14.35 15.5422C15.5768 13.9907 17.4276 12.9548 19.52 12.8164ZM16.6136 22.6775C17.3118 23.5587 18.3453 24.1621 19.52 24.2927V27.1836C17.3169 27.0379 15.3817 25.8969 14.1608 24.2071L16.6136 22.6775ZM19.52 28.1454V31.0289C18 30.9636 16.5588 30.5897 15.2575 29.9681L16.6082 27.4208C17.504 27.8319 18.4865 28.0852 19.52 28.1454ZM20.48 28.1454C21.8149 28.0676 23.0645 27.6674 24.1522 27.0218L25.7631 29.4126C24.2124 30.3656 22.4096 30.9459 20.4799 31.0289V28.1454H20.48ZM20.48 27.1836V24.2927C21.6548 24.1621 22.6882 23.5586 23.3865 22.6775L25.8393 24.2071C24.6183 25.897 22.6831 27.0379 20.48 27.1836ZM26.3486 23.3934L23.8965 21.8642C24.1678 21.2994 24.32 20.6672 24.32 19.9999C24.32 19.2657 24.1354 18.5739 23.8109 17.9678L26.1939 16.3331C26.8326 17.4078 27.2 18.6617 27.2 20.0001C27.2 21.2262 26.8915 22.3817 26.3486 23.3934ZM28.8571 13.4169L26.4706 15.0345C25.8574 14.2373 25.1009 13.5559 24.2393 13.03L25.5897 10.4832C26.8646 11.2349 27.9763 12.235 28.8571 13.4169ZM13.4416 11.1249L15.0524 13.5157C14.1935 14.1727 13.4681 14.9957 12.9253 15.9371L10.3454 14.651C11.1157 13.2662 12.175 12.0633 13.4416 11.1249ZM9.91549 15.5094L12.4959 16.7956C12.074 17.7799 11.8401 18.8631 11.8401 20C11.8401 20.1347 11.8435 20.2685 11.8501 20.4015L8.98371 20.7125C8.96853 20.4768 8.96002 20.2394 8.96002 20C8.96002 18.4018 9.30186 16.8821 9.91549 15.5094ZM11.1429 26.5831L13.5294 24.9655C14.1426 25.7627 14.8991 26.4441 15.7607 26.97L14.4103 29.5168C13.1354 28.7651 12.0237 27.765 11.1429 26.5831ZM26.5584 28.8751L24.9476 26.4843C25.8065 25.8273 26.532 25.0043 27.0747 24.0629L29.6546 25.3489C28.8843 26.7338 27.825 27.9367 26.5584 28.8751ZM30.0845 24.4906L27.5041 23.2044C27.926 22.2201 28.1599 21.1369 28.1599 20C28.1599 19.8653 28.1565 19.7315 28.1499 19.5985L31.0163 19.2875C31.0315 19.5232 31.04 19.7606 31.04 20C31.04 21.5982 30.6981 23.1179 30.0845 24.4906Z" fill="#171719"/>
</svg>
