<svg width="32" height="32" viewBox="0 0 32 32" fill="none" xmlns="http://www.w3.org/2000/svg">
<path d="M6.0831 9.30945C6.1154 8.98281 5.99369 8.65995 5.75537 8.44011L3.32773 5.44709V5H10.8655L16.6919 18.0774L21.8142 5H29V5.44709L26.9244 7.48383C26.7454 7.62343 26.6567 7.85287 26.6937 8.07995V23.045C26.6567 23.2721 26.7454 23.5016 26.9244 23.6412L28.9514 25.6779V26.125H18.7554V25.6779L20.8553 23.5915C21.0616 23.3804 21.0616 23.3183 21.0616 22.9954V10.8991L15.2232 26.0753H14.4342L7.63679 10.8991V21.0704C7.58011 21.498 7.71888 21.9286 8.01307 22.2378L10.7442 25.6282V26.0753H3V25.6282L5.73109 22.2378C6.02314 21.928 6.15382 21.4947 6.0831 21.0704V9.30945Z" fill="#171719"/>
</svg>
