<svg width="32" height="32" viewBox="0 0 32 32" fill="none" xmlns="http://www.w3.org/2000/svg">
<path d="M6.38971 4.14465C5.2556 4.81803 3.02119 7.38495 3 8.05813V9.17242C3 10.5849 4.32028 11.8263 5.51902 11.8263C6.95841 11.8263 8.15768 10.6334 8.15778 9.21756C8.15778 10.6334 9.31595 11.8263 10.7554 11.8263C12.195 11.8263 13.316 10.6334 13.316 9.21756C13.316 10.6334 14.5475 11.8263 15.987 11.8263H16.013C17.4526 11.8263 18.6841 10.6334 18.6841 9.21756C18.6841 10.6334 19.8052 11.8263 21.2446 11.8263C22.6841 11.8263 23.8422 10.6334 23.8422 9.21756C23.8422 10.6334 25.0417 11.8263 26.481 11.8263C27.6797 11.8263 29 10.5851 29 9.17242V8.05813C28.9788 7.38485 26.7444 4.81782 25.6105 4.14465C22.0856 4.02088 19.6419 3.99948 15.9999 4.00001C12.358 4.00033 7.39285 4.05723 6.3895 4.14465H6.38971ZM13.2978 11.1611C13.1601 11.401 12.9897 11.6205 12.7913 11.8133C12.2479 12.3446 11.5031 12.6739 10.682 12.6739C9.89188 12.6747 9.13298 12.3655 8.56828 11.8129C8.3714 11.62 8.22179 11.4138 8.08478 11.1737L8.08414 11.1741C7.94724 11.4147 7.75651 11.6208 7.55921 11.8138C6.99429 12.3661 6.23548 12.6749 5.44549 12.6742C5.34652 12.6742 5.24352 12.6469 5.16024 12.6183C5.04453 13.8233 4.99568 14.9749 4.97841 15.8145L4.9782 15.8193C4.97608 16.2457 4.97396 16.5963 4.97184 17.0834C4.99409 19.6116 4.72145 25.2778 6.08655 26.6701C8.20197 27.1633 12.0946 27.388 15.9998 27.3893H16.0004C19.9055 27.388 23.7981 27.1633 25.9136 26.6701C27.2787 25.2777 27.006 19.6115 27.0283 17.0833C27.0259 16.5963 27.024 16.2457 27.0219 15.8192L27.0216 15.8144C27.0044 14.9746 26.9556 13.8231 26.8399 12.6181C26.7566 12.6467 26.6537 12.674 26.5546 12.674C25.7646 12.6747 25.0058 12.3658 24.4409 11.8136C24.2436 11.6206 24.0529 11.4146 23.9159 11.1739L23.9152 11.1735C23.7781 11.4136 23.6286 11.6199 23.4317 11.8127C22.867 12.3653 22.1082 12.6744 21.3181 12.6736C20.4971 12.6736 19.7522 12.3441 19.2088 11.8129C19.0105 11.6201 18.84 11.4006 18.7023 11.1607C18.5662 11.4003 18.3973 11.6199 18.2005 11.8129C17.6357 12.3654 16.8767 12.6745 16.0866 12.6737C16.058 12.6737 16.0294 12.6724 16.0007 12.6716H16C15.9714 12.6724 15.9428 12.6737 15.9139 12.6737C15.1237 12.6745 14.3648 12.3655 13.7999 11.813C13.6032 11.62 13.4342 11.4004 13.2981 11.1608L13.2978 11.1611ZM11.127 13.968L11.1268 13.9691H11.1284C11.9881 13.9709 12.7517 13.9691 13.698 15.0018C14.4427 14.9237 15.2209 14.8847 15.9997 14.8859H16.0003C16.7791 14.8848 17.5573 14.9237 18.3021 15.0018C19.2484 13.969 20.012 13.9708 20.8717 13.9691H20.8732L20.873 13.968C21.2791 13.968 22.9038 13.968 24.0359 17.1476L25.2519 21.5095C26.153 24.7545 24.9634 24.8339 23.4795 24.8367C21.2789 24.7548 20.0604 23.1567 20.0604 21.5588C18.8423 21.7584 17.4213 21.8582 16.0002 21.8583H15.9996C14.5784 21.8583 13.1574 21.7584 11.9393 21.5588C11.9393 23.1567 10.7208 24.7548 8.52028 24.8367C7.03639 24.8339 5.84687 24.7546 6.74797 21.5095L7.9643 17.1477C9.09639 13.9681 10.7211 13.9681 11.1273 13.9681L11.127 13.968ZM15.9997 16.4668V16.4674C15.9976 16.4696 13.683 18.5952 13.2669 19.3512L14.7826 19.2905V20.6122C14.7826 20.6741 15.3908 20.6489 15.9997 20.6207H16.0003C16.609 20.6489 17.2173 20.6741 17.2173 20.6122V19.2905L18.733 19.3512C18.3167 18.5952 16.0002 16.4674 16.0002 16.4674V16.4668L15.9999 16.467L15.9997 16.4668Z" fill="#171719"/>
</svg>
