<svg width="40" height="40" viewBox="0 0 40 40" fill="none" xmlns="http://www.w3.org/2000/svg">
<path d="M11.129 9.13352C10.0821 9.75511 8.01956 12.1246 8 12.746V13.7745C8 15.0784 9.21872 16.2243 10.3253 16.2243C11.6539 16.2243 12.7609 15.1232 12.761 13.8162C12.761 15.1232 13.8301 16.2243 15.1589 16.2243C16.4877 16.2243 17.5225 15.1232 17.5225 13.8162C17.5225 15.1232 18.6592 16.2243 19.988 16.2243H20.012C21.3409 16.2243 22.4776 15.1232 22.4776 13.8162C22.4776 15.1232 23.5125 16.2243 24.8411 16.2243C26.1699 16.2243 27.239 15.1232 27.239 13.8162C27.239 15.1232 28.3462 16.2243 29.6747 16.2243C30.7813 16.2243 32 15.0786 32 13.7745V12.746C31.9804 12.1245 29.9179 9.75491 28.8712 9.13352C25.6175 9.01928 23.3618 8.99952 19.9999 9.00001C16.6381 9.0003 12.0549 9.05283 11.1288 9.13352H11.129ZM17.5056 15.6103C17.3786 15.8317 17.2212 16.0344 17.0381 16.2123C16.5365 16.7027 15.849 17.0067 15.0911 17.0067C14.3617 17.0074 13.6612 16.722 13.14 16.2119C12.9582 16.0339 12.8201 15.8435 12.6936 15.6219L12.6931 15.6223C12.5667 15.8443 12.3906 16.0346 12.2085 16.2128C11.687 16.7225 10.9866 17.0076 10.2574 17.007C10.166 17.007 10.0709 16.9818 9.99407 16.9553C9.88726 18.0676 9.84217 19.1307 9.82622 19.9057L9.82603 19.9101C9.82407 20.3037 9.82211 20.6274 9.82016 21.077C9.8407 23.4107 9.58903 28.6411 10.8491 29.9262C12.8018 30.3815 16.395 30.5889 19.9998 30.5902H20.0004C23.6051 30.5889 27.1983 30.3815 29.151 29.9262C30.4111 28.641 30.1594 23.4107 30.1799 21.0769C30.1778 20.6274 30.176 20.3037 30.1741 19.91L30.1738 19.9056C30.1579 19.1304 30.1128 18.0675 30.006 16.9551C29.9292 16.9816 29.8342 17.0068 29.7427 17.0068C29.0135 17.0074 28.3131 16.7223 27.7916 16.2126C27.6095 16.0344 27.4334 15.8442 27.3069 15.6221L27.3064 15.6217C27.1798 15.8433 27.0418 16.0338 26.86 16.2117C26.3388 16.7218 25.6383 17.0071 24.909 17.0064C24.1512 17.0064 23.4636 16.7022 22.962 16.2119C22.7789 16.034 22.6215 15.8313 22.4945 15.6099C22.3688 15.8311 22.2129 16.0337 22.0312 16.2119C21.5098 16.7219 20.8093 17.0072 20.0799 17.0065C20.0535 17.0065 20.0271 17.0053 20.0007 17.0045H20C19.9736 17.0053 19.9472 17.0065 19.9205 17.0065C19.1911 17.0072 18.4906 16.722 17.9692 16.212C17.7875 16.0338 17.6316 15.8312 17.5059 15.61L17.5056 15.6103ZM15.5019 18.2013L15.5017 18.2022H15.5032C16.2967 18.2039 17.0016 18.2022 17.8751 19.1555C18.5625 19.0834 19.2808 19.0474 19.9997 19.0485H20.0003C20.7192 19.0475 21.4375 19.0834 22.125 19.1555C22.9985 18.2021 23.7034 18.2038 24.4969 18.2022H24.4983L24.4981 18.2013C24.873 18.2013 26.3728 18.2013 27.4178 21.1363L28.5402 25.1626C29.372 28.158 28.2739 28.2313 26.9042 28.2339C24.8728 28.1583 23.7481 26.6831 23.7481 25.2081C22.6237 25.3924 21.3119 25.4845 20.0002 25.4846H19.9996C18.6878 25.4846 17.376 25.3924 16.2517 25.2081C16.2517 26.6831 15.1269 28.1583 13.0956 28.2339C11.7259 28.2313 10.6279 28.1581 11.4597 25.1626L12.5824 21.1364C13.6274 18.2014 15.1272 18.2014 15.5021 18.2014L15.5019 18.2013ZM19.9997 20.5078V20.5084C19.9978 20.5104 17.8613 22.4725 17.4772 23.1703L18.8763 23.1143V24.3344C18.8763 24.3915 19.4377 24.3682 19.9997 24.3422H20.0003C20.5621 24.3682 21.1236 24.3915 21.1236 24.3344V23.1143L22.5227 23.1703C22.1385 22.4725 20.0002 20.5084 20.0002 20.5084V20.5078L19.9999 20.508L19.9997 20.5078Z" fill="#171719"/>
</svg>
