<svg width="32" height="32" viewBox="0 0 32 32" fill="none" xmlns="http://www.w3.org/2000/svg">
<circle cx="16" cy="16" r="12.25" stroke="#171719" stroke-width="1.5"/>
<path d="M23.25 16C23.25 19.4739 22.382 22.583 21.0181 24.7993C19.6468 27.0277 17.8516 28.25 16 28.25C14.1484 28.25 12.3532 27.0277 10.9819 24.7993C9.61803 22.583 8.75 19.4739 8.75 16C8.75 12.5261 9.61803 9.41696 10.9819 7.20069C12.3532 4.97227 14.1484 3.75 16 3.75C17.8516 3.75 19.6468 4.97227 21.0181 7.20069C22.382 9.41696 23.25 12.5261 23.25 16Z" stroke="#171719" stroke-width="1.5"/>
<path d="M16 4V28" stroke="#171719" stroke-width="1.5"/>
<path d="M28 16L4 16" stroke="#171719" stroke-width="1.5"/>
</svg>
