<svg width="40" height="40" viewBox="0 0 40 40" fill="none" xmlns="http://www.w3.org/2000/svg">
<path d="M20.0001 8C13.3735 8 8 13.5085 8 20.3038C8 25.74 11.4384 30.3519 16.2064 31.9789C16.8061 32.0927 17.0263 31.7119 17.0263 31.387C17.0263 31.0936 17.0152 30.1244 17.01 29.0963C13.6716 29.8405 12.9671 27.6446 12.9671 27.6446C12.4212 26.2224 11.6347 25.8443 11.6347 25.8443C10.546 25.0806 11.7168 25.0963 11.7168 25.0963C12.9218 25.1831 13.5563 26.3642 13.5563 26.3642C14.6266 28.2452 16.3636 27.7014 17.0484 27.387C17.1561 26.5918 17.4671 26.049 17.8102 25.7418C15.1449 25.4307 12.343 24.3757 12.343 19.6612C12.343 18.3179 12.8117 17.2203 13.5794 16.3587C13.4548 16.0488 13.044 14.7974 13.6956 13.1026C13.6956 13.1026 14.7033 12.7719 16.9965 14.3638C17.9537 14.0912 18.9803 13.9545 20.0001 13.9498C21.0199 13.9545 22.0473 14.0912 23.0063 14.3638C25.2967 12.7719 26.303 13.1026 26.303 13.1026C26.9562 14.7974 26.5452 16.0488 26.4206 16.3587C27.1901 17.2203 27.6557 18.3179 27.6557 19.6612C27.6557 24.3869 24.8484 25.4274 22.1762 25.732C22.6067 26.1138 22.9902 26.8626 22.9902 28.0105C22.9902 29.6568 22.9763 30.9817 22.9763 31.387C22.9763 31.7144 23.1923 32.098 23.8006 31.9772C28.566 30.3485 32 25.7381 32 20.3038C32 13.5085 26.6273 8 20.0001 8" fill="#171719"/>
<path d="M12.5804 25.5812C12.5541 25.6417 12.4604 25.6598 12.3751 25.6183C12.2883 25.5785 12.2395 25.496 12.2676 25.4353C12.2934 25.373 12.3872 25.3556 12.4739 25.3974C12.561 25.4371 12.6106 25.5204 12.5804 25.5812" fill="#171719"/>
<path d="M13.0656 26.1315C13.0085 26.1854 12.8968 26.1603 12.821 26.0752C12.7427 25.9903 12.728 25.8767 12.7859 25.822C12.8448 25.7682 12.9531 25.7934 13.0317 25.8783C13.11 25.9643 13.1253 26.077 13.0656 26.1315" fill="#171719"/>
<path d="M13.5379 26.8331C13.4645 26.885 13.3445 26.8364 13.2703 26.728C13.1969 26.6197 13.1969 26.4898 13.2719 26.4377C13.3463 26.3857 13.4645 26.4325 13.5396 26.54C13.6128 26.6502 13.6128 26.7801 13.5379 26.8331" fill="#171719"/>
<path d="M14.1849 27.511C14.1192 27.5846 13.9794 27.5648 13.877 27.4644C13.7723 27.3661 13.7431 27.2267 13.809 27.1531C13.8754 27.0792 14.0161 27.1 14.1192 27.1997C14.2231 27.2977 14.2549 27.4381 14.1849 27.511" fill="#171719"/>
<path d="M15.0774 27.9046C15.0485 28 14.9138 28.0433 14.7781 28.0028C14.6426 27.961 14.554 27.8493 14.5814 27.7528C14.6095 27.6568 14.7448 27.6116 14.8815 27.655C15.0167 27.6966 15.1056 27.8075 15.0774 27.9046" fill="#171719"/>
<path d="M16.0576 27.9776C16.061 28.078 15.946 28.1614 15.8036 28.1632C15.6604 28.1664 15.5445 28.0851 15.5429 27.9863C15.5429 27.8848 15.6554 27.8023 15.7986 27.7999C15.941 27.797 16.0576 27.8777 16.0576 27.9776" fill="#171719"/>
<path d="M16.9699 27.8196C16.9869 27.9177 16.8879 28.0183 16.7465 28.0452C16.6075 28.071 16.4787 28.0105 16.4611 27.9132C16.4438 27.8128 16.5446 27.7121 16.6834 27.6861C16.8251 27.6611 16.9518 27.72 16.9699 27.8196" fill="#171719"/>
</svg>
