<svg width="32" height="32" viewBox="0 0 32 32" fill="none" xmlns="http://www.w3.org/2000/svg">
<path d="M16 3C8.82075 3 3 8.82075 3 16C3 23.1793 8.82075 29 16 29C23.1793 29 29 23.1793 29 16C29 8.82075 23.1793 3 16 3ZM24.5887 8.37983L24.6342 9.32883L23.6418 9.49892C22.8781 9.70908 22.2118 10.0027 21.6453 10.3797C21.0787 10.7567 20.5988 11.1705 20.2044 11.6233C19.8217 12.0627 19.4982 12.5504 19.2424 13.0739L19.2251 13.1129C18.9618 13.6611 18.7278 14.2396 18.5209 14.8452C18.9456 14.4802 19.4243 14.1835 19.9401 13.9655L19.9758 13.9525C20.5403 13.7109 21.2119 13.5896 21.9952 13.5896C22.9041 13.5896 23.6668 13.9103 24.2821 14.5473C24.8974 15.1843 25.2062 16.0152 25.2062 17.0368C25.2062 18.5632 24.6201 19.8837 23.4468 21.0007C22.2736 22.1176 20.8317 22.6766 19.1222 22.6766C17.7626 22.6766 16.6782 22.2714 15.8689 21.4611C15.0597 20.6508 14.6556 19.5728 14.6556 18.2317C14.6556 15.6718 15.5656 13.4791 17.3856 11.6526C19.2056 9.82608 21.6052 8.73625 24.5898 8.37767L24.5887 8.37983ZM11.5854 12.8616C12.0567 12.8616 12.4933 12.8908 12.8973 12.9493C13.3177 13.0089 13.6979 13.1216 14.0511 13.2819L14.0251 13.2711C14.3349 13.4119 14.5928 13.6199 14.7888 13.8778L14.7921 13.8821C14.9752 14.1334 15.0651 14.4378 15.0651 14.7964C15.0651 15.155 14.9373 15.4616 14.6794 15.7194C14.4227 15.9773 14.0847 16.1051 13.6687 16.1051C13.309 16.1051 13.0111 16.0065 12.7717 15.8104C12.5323 15.6143 12.3394 15.3836 12.1899 15.1149C12.0415 14.8408 11.9223 14.5559 11.8357 14.2656C11.749 13.9753 11.6775 13.7315 11.6223 13.5354C11.1878 13.5614 10.7935 13.7283 10.4371 14.0327C10.0807 14.3371 9.90083 14.7141 9.90083 15.1658C9.90083 15.4399 9.94308 15.6555 10.0265 15.8115C10.1099 15.9675 10.2258 16.0986 10.3634 16.1993L10.3667 16.2015C10.5422 16.3261 10.7437 16.4366 10.956 16.5222L10.9755 16.5287C11.1391 16.6034 11.4424 16.7204 11.749 16.8309L11.892 16.8753C12.7348 17.1873 13.3708 17.5633 13.7987 17.9998C14.1464 18.3552 14.3501 18.8037 14.4151 19.3443C14.4064 19.2175 14.5418 20.5457 14.4346 19.5425C14.4368 19.6032 14.4411 19.6649 14.4411 19.7278C14.4411 20.1968 14.336 20.6453 14.128 21.0765C13.92 21.5077 13.6253 21.8652 13.2418 22.1512C12.804 22.4673 12.3142 22.7042 11.7945 22.851L11.762 22.8586C11.203 23.0178 10.4923 23.098 9.63108 23.098C8.84892 23.098 8.20325 23.0319 7.693 22.8987C7.18275 22.7654 6.77758 22.5932 6.47967 22.3852C6.17525 22.1761 5.96725 21.954 5.85675 21.7168C5.74625 21.4795 5.68883 21.2563 5.68883 21.0483C5.68883 20.6703 5.82425 20.3388 6.09292 20.056C6.36158 19.7733 6.72125 19.6324 7.1665 19.6324C7.53917 19.6324 7.85008 19.7321 8.10142 19.9336C8.35708 20.1427 8.56725 20.3951 8.72325 20.6822L8.72975 20.6952C8.87708 20.9595 9.01033 21.2672 9.11108 21.5878L9.12083 21.6225C9.15875 21.72 9.23567 21.9713 9.30717 22.2248L9.344 22.3754C10.0449 22.3754 10.5758 22.2194 10.9354 21.9031C11.2951 21.5868 11.4749 21.1545 11.4749 20.6074C11.4749 20.3669 11.4208 20.1654 11.3124 20.0029C11.2041 19.8404 11.0589 19.6963 10.8802 19.5718C10.7003 19.4548 10.4718 19.341 10.1923 19.2305C9.91275 19.12 9.6365 19.016 9.3635 18.9174C8.61275 18.6509 8.02017 18.2815 7.5825 17.8092C7.14483 17.3368 6.92708 16.7497 6.92708 16.0455V16.0314C6.92708 15.6078 7.02783 15.2081 7.20767 14.8538L7.20117 14.869C7.38533 14.5007 7.67133 14.1605 8.06133 13.8463C8.44592 13.5473 8.93233 13.309 9.52167 13.1303C10.111 12.9515 10.7989 12.8605 11.5865 12.8605L11.5854 12.8616ZM20.2705 14.8918C19.9141 14.8918 19.5772 14.9633 19.2598 15.1073C18.9423 15.2514 18.6043 15.5374 18.2479 15.9653C18.2046 16.1636 18.1298 16.5438 18.0204 17.1083C17.911 17.6727 17.8558 18.3671 17.8558 19.1915C17.8558 20.0343 17.989 20.6908 18.2512 21.1632C18.5133 21.6355 18.8643 21.8728 19.2998 21.8728C19.978 21.8728 20.5652 21.4048 21.0635 20.4698H21.0657C21.564 19.5338 21.8132 18.3985 21.8132 17.0638C21.8132 16.3943 21.668 15.8635 21.3777 15.4735C21.0873 15.0835 20.719 14.8907 20.2705 14.8907V14.8918Z" fill="#171719"/>
</svg>
