<svg width="32" height="32" viewBox="0 0 32 32" fill="none" xmlns="http://www.w3.org/2000/svg">
<path fill-rule="evenodd" clip-rule="evenodd" d="M20.7192 23.6913C21.387 24.527 22.1884 25.4726 22.1884 25.4726C27.1079 25.3187 29 22.13 29 22.13C29 15.0489 25.7945 9.30924 25.7945 9.30924C22.589 6.93421 19.5394 7.00018 19.5394 7.00018L19.2277 7.35204C23.012 8.49557 24.7705 10.1449 24.7705 10.1449C22.4555 8.89141 20.1849 8.27566 18.0702 8.03376C16.4675 7.85783 14.9315 7.90181 13.5736 8.07774C13.457 8.07774 13.3574 8.0945 13.2451 8.11339C13.2288 8.11614 13.2122 8.11893 13.1952 8.12172C12.4161 8.1877 10.524 8.47358 8.14212 9.50716C7.31849 9.881 6.82877 10.1449 6.82877 10.1449C6.82877 10.1449 8.67637 8.40761 12.6832 7.26407L12.4606 7.00018C12.4606 7.00018 9.41096 6.93421 6.20548 9.30924C6.20548 9.30924 3 15.0489 3 22.13C3 22.13 4.86986 25.3187 9.78938 25.4726C9.78938 25.4726 10.613 24.483 11.2808 23.6474C8.45377 22.8117 7.38527 21.0524 7.38527 21.0524C7.38527 21.0524 7.60788 21.2064 8.00856 21.4263C8.03082 21.4483 8.05308 21.4703 8.0976 21.4922C8.13099 21.5142 8.16438 21.5307 8.19777 21.5472C8.23116 21.5637 8.26455 21.5802 8.29794 21.6022C8.85445 21.9101 9.41096 22.152 9.92294 22.3499C10.8356 22.7018 11.9264 23.0536 13.1952 23.2955C14.8647 23.6034 16.8236 23.7133 18.9606 23.3175C20.0068 23.1416 21.0753 22.8337 22.1884 22.3719C22.9675 22.086 23.8356 21.6682 24.7483 21.0744C24.7483 21.0744 23.6353 22.8777 20.7192 23.6913ZM12.4643 15.6018C11.2054 15.6018 10.2116 16.7339 10.2116 18.1151C10.2116 19.4962 11.2275 20.6283 12.4643 20.6283C13.7231 20.6283 14.7169 19.4962 14.7169 18.1151C14.739 16.7339 13.7231 15.6018 12.4643 15.6018ZM20.5252 15.6018C19.2664 15.6018 18.2726 16.7339 18.2726 18.1151C18.2726 19.4962 19.2885 20.6283 20.5252 20.6283C21.7841 20.6283 22.7779 19.4962 22.7779 18.1151C22.7779 16.7339 21.7841 15.6018 20.5252 15.6018Z" fill="#171719"/>
</svg>
