<svg width="32" height="32" viewBox="0 0 32 32" fill="none" xmlns="http://www.w3.org/2000/svg">
<path opacity="0.5" d="M13 21C5.4 22.2 3.16667 26.8333 3 29C3 29 2.42725 23.4507 5.5 19.5C9 15 14.5 13.3293 20 12C25.5 10.6707 29 3 29 3C29 3 29.5 10 26.5 13.5C25.1667 15.5 20.6 19.8 13 21Z" fill="#171719"/>
<path d="M14 18.5C6.45526 20.0089 3.16667 26.8333 3 29C3 29 3 22.5 7 19C11.2903 15.2459 17.5 14.5 23 12.5C28.5 10.5 29 3 29 3C29 3 29.5 10 26.5 13.5C25.1667 15.5 21.5 17 14 18.5Z" fill="#171719"/>
</svg>
