<svg width="40" height="40" viewBox="0 0 40 40" fill="none" xmlns="http://www.w3.org/2000/svg">
<path fill-rule="evenodd" clip-rule="evenodd" d="M8 12C8 11.4477 8.44772 11 9 11H25.5H28H29.5C33.0899 11 36 13.9101 36 17.5C36 21.0899 33.0899 24 29.5 24H28V26C28 27.6569 26.6569 29 25 29H11C9.34315 29 8 27.6569 8 26V12ZM28 15V20H29.5C30.8807 20 32 18.8807 32 17.5C32 16.1193 30.8807 15 29.5 15H28ZM12.4927 18.2126C12.4927 19.1862 12.9258 20.0586 13.6098 20.6478C13.6207 20.6674 13.6347 20.6862 13.652 20.7037L17.8223 24.9172C17.9201 25.0161 18.0799 25.0161 18.1777 24.9172L22.348 20.7037C22.3653 20.6862 22.3793 20.6674 22.3902 20.6478C23.0742 20.0586 23.5073 19.1862 23.5073 18.2126C23.5073 16.4383 22.069 15 20.2947 15C19.3958 15 18.5831 15.3692 18 15.9642C17.4169 15.3692 16.6042 15 15.7053 15C13.931 15 12.4927 16.4383 12.4927 18.2126Z" fill="#171719"/>
</svg>
