<?xml version="1.0" encoding="UTF-8"?>
<svg width="32px" height="32px" viewBox="0 0 32 32" version="1.1" xmlns="http://www.w3.org/2000/svg" xmlns:xlink="http://www.w3.org/1999/xlink">
    <!-- Generator: Sketch 52.3 (67297) - http://www.bohemiancoding.com/sketch -->
    <title>icon-tumblr</title>
    <desc>Created with Sketch.</desc>
    <g id="icon-tumblr" stroke="none" stroke-width="1" fill="none" fill-rule="evenodd">
        <path d="M23.493772,25.560492 C22.911406,25.8442834 21.7976727,26.091198 20.967178,26.1124427 C18.459806,26.1809854 17.97316,24.3128907 17.9529567,22.9586674 L17.9529567,12.9968973 L24.2424727,12.9968973 L24.2424727,8.15159534 L17.9747293,8.15159534 L17.9747293,0 L13.3881787,0 C13.3126613,0 13.1808493,0.0675406667 13.1622153,0.238898 C12.8938833,2.73369934 11.751512,7.11242867 7,8.86327934 L7,12.9966973 L10.1697667,12.9966973 L10.1697667,23.4518954 C10.1697667,27.03196 12.7542253,32.1179634 19.576874,31.9979134 C21.878878,31.9576294 24.4354833,30.9731767 25,30.1232047 L23.493772,25.560492" id="Tumblr" fill="#FFFFFF"></path>
    </g>
</svg>