<svg width="40" height="40" viewBox="0 0 40 40" fill="none" xmlns="http://www.w3.org/2000/svg">
<path fill-rule="evenodd" clip-rule="evenodd" d="M24.3562 26.4074C24.9726 27.1788 25.7123 28.0516 25.7123 28.0516C30.2534 27.9095 32 24.9661 32 24.9661C32 18.4297 29.0411 13.1316 29.0411 13.1316C26.0822 10.9393 23.2671 11.0002 23.2671 11.0002L22.9795 11.325C26.4726 12.3805 28.0959 13.903 28.0959 13.903C25.9589 12.7459 23.863 12.1775 21.911 11.9542C20.4315 11.7918 19.0137 11.8324 17.7603 11.9948C17.6526 11.9948 17.5607 12.0103 17.457 12.0277C17.4419 12.0303 17.4266 12.0329 17.411 12.0354C16.6918 12.0963 14.9452 12.3602 12.7466 13.3143C11.9863 13.6594 11.5342 13.903 11.5342 13.903C11.5342 13.903 13.2397 12.2993 16.9384 11.2438L16.7329 11.0002C16.7329 11.0002 13.9178 10.9393 10.9589 13.1316C10.9589 13.1316 8 18.4297 8 24.9661C8 24.9661 9.72603 27.9095 14.2671 28.0516C14.2671 28.0516 15.0274 27.1382 15.6438 26.3668C13.0342 25.5954 12.0479 23.9715 12.0479 23.9715C12.0479 23.9715 12.2534 24.1136 12.6233 24.3166C12.6438 24.3369 12.6644 24.3572 12.7055 24.3775C12.7363 24.3978 12.7671 24.413 12.7979 24.4282C12.8288 24.4434 12.8596 24.4587 12.8904 24.479C13.4041 24.7631 13.9178 24.9864 14.3904 25.1691C15.2329 25.4939 16.2397 25.8187 17.411 26.042C18.9521 26.3262 20.7603 26.4277 22.7329 26.0623C23.6986 25.8999 24.6849 25.6157 25.7123 25.1894C26.4315 24.9255 27.2329 24.5399 28.0753 23.9918C28.0753 23.9918 27.0479 25.6563 24.3562 26.4074ZM16.7362 18.9401C15.5742 18.9401 14.6569 19.9851 14.6569 21.26C14.6569 22.535 15.5946 23.58 16.7362 23.58C17.8982 23.58 18.8156 22.535 18.8156 21.26C18.836 19.9851 17.8982 18.9401 16.7362 18.9401ZM24.1772 18.9401C23.0151 18.9401 22.0978 19.9851 22.0978 21.26C22.0978 22.535 23.0355 23.58 24.1772 23.58C25.3392 23.58 26.2565 22.535 26.2565 21.26C26.2565 19.9851 25.3392 18.9401 24.1772 18.9401Z" fill="#171719"/>
</svg>
