<?xml version="1.0" encoding="UTF-8"?>
<svg width="56px" height="64px" viewBox="0 0 56 64" version="1.1" xmlns="http://www.w3.org/2000/svg" xmlns:xlink="http://www.w3.org/1999/xlink">
    <title>Group 3 Copy 7</title>
    <g id="Icons" stroke="none" stroke-width="1" fill="none" fill-rule="evenodd">
        <g id="Group-3-Copy-7" fill="#FFFFFF" fill-rule="nonzero">
            <path d="M15.4285714,3.71428571 C15.4285714,10.4994984 20.9290731,16 27.7142857,16 C34.4316462,16 39.8898615,10.6089583 39.9983541,3.91745246 L40,3.71428571 L42.2857143,3.71428571 C42.2857143,9.70012243 38.6764109,14.8429612 33.5153988,17.0852074 C39.4843011,19.4072867 43.7142857,25.2096604 43.7142857,32 C43.7142857,40.836556 36.5508417,48 27.7142857,48 C18.8777297,48 11.7142857,40.836556 11.7142857,32 C11.7142857,25.2092807 15.9447435,19.4066377 21.9139528,17.0837773 C16.8217226,14.8733537 13.2401895,9.83802678 13.1448093,3.95525093 L13.1428571,3.71428571 L15.4285714,3.71428571 Z M27.7142857,18.2857143 C20.1400949,18.2857143 14,24.4258091 14,32 C14,39.5741909 20.1400949,45.7142857 27.7142857,45.7142857 C35.2884766,45.7142857 41.4285714,39.5741909 41.4285714,32 C41.4285714,24.4258091 35.2884766,18.2857143 27.7142857,18.2857143 Z M19.7157585,16 L22.2871871,16 L22.2871871,18.2857143 L19.7157585,18.2857143 L19.7157585,16 Z M27.7142857,0 L55.4270986,48 L28.9994728,48 L28.9994728,54.285 L36.8571429,54.2857143 L36.8571429,56.5714286 L28.9994728,56.571 L29,63.8571429 L26.7142857,63.8571429 L26.7134728,56.571 L18.8571429,56.5714286 L18.8571429,54.2857143 L26.7134728,54.285 L26.7134728,48 L0.00147279318,48 L27.7142857,0 Z M42.5704728,30.304 L42.5714286,32.5714286 L12.8571429,32.5714286 L12.8564728,30.304 L3.96028571,45.7142857 L51.468,45.7142857 L42.5704728,30.304 Z M27.714,4.57142857 L12.8674728,30.285 L42.5594728,30.285 L35.6314728,18.285 L32.8586157,18.2857143 L32.8586157,16 L34.3124728,16 L27.714,4.57142857 Z" id="Combined-Shape"></path>
        </g>
    </g>
</svg>