<svg width="32" height="32" viewBox="0 0 32 32" fill="none" xmlns="http://www.w3.org/2000/svg">
<path d="M16.0001 3C8.82129 3 3 8.96751 3 16.3291C3 22.2183 6.72493 27.2146 11.8903 28.9771C12.54 29.1005 12.7785 28.6879 12.7785 28.3359C12.7785 28.018 12.7664 26.9681 12.7608 25.8543C9.1442 26.6606 8.38105 24.2816 8.38105 24.2816C7.78968 22.741 6.93762 22.3313 6.93762 22.3313C5.75812 21.504 7.02653 21.521 7.02653 21.521C8.33196 21.615 9.01934 22.8946 9.01934 22.8946C10.1788 24.9323 12.0606 24.3432 12.8024 24.0026C12.9191 23.1411 13.256 22.5531 13.6278 22.2203C10.7403 21.8832 7.70486 20.7403 7.70486 15.633C7.70486 14.1777 8.2127 12.9887 9.04431 12.0552C8.90934 11.7195 8.46436 10.3638 9.17025 8.52783C9.17025 8.52783 10.2619 8.16959 12.7462 9.89412C13.7832 9.59879 14.8953 9.45068 16.0001 9.4456C17.1049 9.45068 18.2179 9.59879 19.2568 9.89412C21.7381 8.16959 22.8282 8.52783 22.8282 8.52783C23.5359 10.3638 23.0907 11.7195 22.9557 12.0552C23.7892 12.9887 24.2936 14.1777 24.2936 15.633C24.2936 20.7524 21.2524 21.8797 18.3576 22.2097C18.8239 22.6233 19.2394 23.4345 19.2394 24.678C19.2394 26.4615 19.2243 27.8969 19.2243 28.3359C19.2243 28.6906 19.4583 29.1062 20.1173 28.9753C25.2798 27.2109 29 22.2163 29 16.3291C29 8.96751 23.1796 3 16.0001 3Z" fill="#171719"/>
<path d="M7.96214 22.0462C7.93356 22.1118 7.83214 22.1315 7.73974 22.0865C7.64562 22.0434 7.59276 21.954 7.62328 21.8882C7.65121 21.8207 7.75285 21.8019 7.84675 21.8472C7.94108 21.8902 7.9948 21.9805 7.96214 22.0462Z" fill="#171719"/>
<path d="M8.48772 22.6424C8.42583 22.7008 8.30486 22.6737 8.22277 22.5815C8.1379 22.4895 8.122 22.3664 8.18474 22.3072C8.24856 22.2488 8.36588 22.2762 8.45097 22.3682C8.53585 22.4613 8.55239 22.5834 8.48772 22.6424Z" fill="#171719"/>
<path d="M8.99934 23.4026C8.91983 23.4587 8.78983 23.4061 8.70947 23.2887C8.62997 23.1713 8.62997 23.0306 8.71119 22.9742C8.79177 22.9178 8.91983 22.9685 9.00127 23.085C9.08056 23.2043 9.08056 23.3451 8.99934 23.4026Z" fill="#171719"/>
<path d="M9.70027 24.1369C9.62914 24.2167 9.47766 24.1952 9.36678 24.0864C9.25332 23.98 9.22174 23.8289 9.29308 23.7492C9.36506 23.6692 9.51741 23.6917 9.62914 23.7997C9.74174 23.9059 9.77612 24.058 9.70027 24.1369Z" fill="#171719"/>
<path d="M10.6672 24.5633C10.6358 24.6666 10.4899 24.7136 10.343 24.6697C10.1962 24.6245 10.1001 24.5034 10.1298 24.3989C10.1603 24.2949 10.3069 24.2459 10.4549 24.2929C10.6014 24.3379 10.6977 24.4581 10.6672 24.5633Z" fill="#171719"/>
<path d="M11.7291 24.6424C11.7328 24.7512 11.6081 24.8415 11.4539 24.8434C11.2987 24.8469 11.1732 24.7589 11.1715 24.6518C11.1715 24.5419 11.2933 24.4525 11.4485 24.4498C11.6028 24.4468 11.7291 24.5342 11.7291 24.6424Z" fill="#171719"/>
<path d="M12.7173 24.4713C12.7358 24.5775 12.6286 24.6865 12.4754 24.7156C12.3248 24.7436 12.1853 24.678 12.1662 24.5727C12.1475 24.4638 12.2566 24.3548 12.4071 24.3266C12.5605 24.2995 12.6978 24.3633 12.7173 24.4713Z" fill="#171719"/>
</svg>
