<svg width="40" height="40" viewBox="0 0 40 40" fill="none" xmlns="http://www.w3.org/2000/svg">
<path opacity="0.5" d="M17.2436 24.5686C10.248 25.6731 8.19229 29.938 8.03888 31.9324C8.03888 31.9324 7.51168 26.8243 10.3401 23.1878C13.5617 19.0457 18.6243 17.5079 23.687 16.2843C28.7496 15.0607 31.9712 8 31.9712 8C31.9712 8 32.4315 14.4433 29.67 17.665C28.4427 19.5059 24.2392 23.464 17.2436 24.5686Z" fill="#171719"/>
<path d="M18.1641 22.2674C11.2194 23.6563 8.19229 29.938 8.03888 31.9324C8.03888 31.9324 8.03888 25.9493 11.7208 22.7276C15.6699 19.2721 21.3858 18.5855 26.4484 16.7445C31.511 14.9036 31.9712 8 31.9712 8C31.9712 8 32.4315 14.4433 29.67 17.665C28.4427 19.5059 25.0677 20.8867 18.1641 22.2674Z" fill="#171719"/>
</svg>
