<svg width="40" height="40" viewBox="0 0 40 40" fill="none" xmlns="http://www.w3.org/2000/svg">
<path d="M20 8C13.373 8 8 13.373 8 20C8 26.627 13.373 32 20 32C26.627 32 32 26.627 32 20C32 13.373 26.627 8 20 8ZM27.928 12.966L27.97 13.842L27.054 13.999C26.349 14.193 25.734 14.464 25.211 14.812C24.688 15.16 24.245 15.542 23.881 15.96C23.5277 16.3656 23.2291 16.8157 22.993 17.299L22.977 17.335C22.734 17.841 22.518 18.375 22.327 18.934C22.719 18.5971 23.1609 18.3232 23.637 18.122L23.67 18.11C24.191 17.887 24.811 17.775 25.534 17.775C26.373 17.775 27.077 18.071 27.645 18.659C28.213 19.247 28.498 20.014 28.498 20.957C28.498 22.366 27.957 23.585 26.874 24.616C25.791 25.647 24.46 26.163 22.882 26.163C21.627 26.163 20.626 25.789 19.879 25.041C19.132 24.293 18.759 23.298 18.759 22.06C18.759 19.697 19.599 17.673 21.279 15.987C22.959 14.301 25.174 13.295 27.929 12.964L27.928 12.966ZM15.925 17.103C16.36 17.103 16.763 17.13 17.136 17.184C17.524 17.239 17.875 17.343 18.201 17.491L18.177 17.481C18.463 17.611 18.701 17.803 18.882 18.041L18.885 18.045C19.054 18.277 19.137 18.558 19.137 18.889C19.137 19.22 19.019 19.503 18.781 19.741C18.544 19.979 18.232 20.097 17.848 20.097C17.516 20.097 17.241 20.006 17.02 19.825C16.799 19.644 16.621 19.431 16.483 19.183C16.346 18.93 16.236 18.667 16.156 18.399C16.076 18.131 16.01 17.906 15.959 17.725C15.558 17.749 15.194 17.903 14.865 18.184C14.536 18.465 14.37 18.813 14.37 19.23C14.37 19.483 14.409 19.682 14.486 19.826C14.563 19.97 14.67 20.091 14.797 20.184L14.8 20.186C14.962 20.301 15.148 20.403 15.344 20.482L15.362 20.488C15.513 20.557 15.793 20.665 16.076 20.767L16.208 20.808C16.986 21.096 17.573 21.443 17.968 21.846C18.289 22.174 18.477 22.588 18.537 23.087C18.529 22.97 18.654 24.196 18.555 23.27C18.557 23.326 18.561 23.383 18.561 23.441C18.561 23.874 18.464 24.288 18.272 24.686C18.08 25.084 17.808 25.414 17.454 25.678C17.0499 25.9698 16.5977 26.1885 16.118 26.324L16.088 26.331C15.572 26.478 14.916 26.552 14.121 26.552C13.399 26.552 12.803 26.491 12.332 26.368C11.861 26.245 11.487 26.086 11.212 25.894C10.931 25.701 10.739 25.496 10.637 25.277C10.535 25.058 10.482 24.852 10.482 24.66C10.482 24.311 10.607 24.005 10.855 23.744C11.103 23.483 11.435 23.353 11.846 23.353C12.19 23.353 12.477 23.445 12.709 23.631C12.945 23.824 13.139 24.057 13.283 24.322L13.289 24.334C13.425 24.578 13.548 24.862 13.641 25.158L13.65 25.19C13.685 25.28 13.756 25.512 13.822 25.746L13.856 25.885C14.503 25.885 14.993 25.741 15.325 25.449C15.657 25.157 15.823 24.758 15.823 24.253C15.823 24.031 15.773 23.845 15.673 23.695C15.573 23.545 15.439 23.412 15.274 23.297C15.108 23.189 14.897 23.084 14.639 22.982C14.381 22.88 14.126 22.784 13.874 22.693C13.181 22.447 12.634 22.106 12.23 21.67C11.826 21.234 11.625 20.692 11.625 20.042V20.029C11.625 19.638 11.718 19.269 11.884 18.942L11.878 18.956C12.048 18.616 12.312 18.302 12.672 18.012C13.027 17.736 13.476 17.516 14.02 17.351C14.564 17.186 15.199 17.102 15.926 17.102L15.925 17.103ZM23.942 18.977C23.613 18.977 23.302 19.043 23.009 19.176C22.716 19.309 22.404 19.573 22.075 19.968C22.035 20.151 21.966 20.502 21.865 21.023C21.764 21.544 21.713 22.185 21.713 22.946C21.713 23.724 21.836 24.33 22.078 24.766C22.32 25.202 22.644 25.421 23.046 25.421C23.672 25.421 24.214 24.989 24.674 24.126H24.676C25.136 23.262 25.366 22.214 25.366 20.982C25.366 20.364 25.232 19.874 24.964 19.514C24.696 19.154 24.356 18.976 23.942 18.976V18.977Z" fill="#171719"/>
</svg>
