<svg width="32" height="32" viewBox="0 0 32 32" fill="none" xmlns="http://www.w3.org/2000/svg">
<path fill-rule="evenodd" clip-rule="evenodd" d="M29 15.982C29 16.8611 28.9105 17.7391 28.7347 18.5949C28.5633 19.4303 28.3094 20.2506 27.9767 21.0347C27.6517 21.8049 27.2486 22.5471 26.7776 23.2393C26.3136 23.9271 25.7791 24.5724 25.1919 25.1606C24.6034 25.7463 23.9559 26.2794 23.2685 26.7453C22.574 27.2131 21.8307 27.6156 21.06 27.9421C20.2748 28.273 19.4527 28.5265 18.6179 28.6977C17.761 28.8739 16.8798 28.9639 15.9994 28.9639C15.1183 28.9639 14.2372 28.8739 13.3815 28.6977C12.5455 28.5265 11.7234 28.273 10.9388 27.9421C10.1682 27.6156 9.42417 27.2131 8.72972 26.7453C8.04223 26.2794 7.39474 25.7463 6.80755 25.1606C6.21974 24.5724 5.68521 23.9271 5.22055 23.2393C4.75207 22.5471 4.34831 21.8048 4.02204 21.0347C3.68937 20.2506 3.43485 19.4303 3.26281 18.5949C3.08889 17.7391 3 16.8611 3 15.982C3 15.1022 3.08884 14.2223 3.26286 13.3684C3.4349 12.533 3.68942 11.7115 4.02209 10.9286C4.34836 10.1578 4.75212 9.41495 5.2206 8.72272C5.68527 8.03435 6.21979 7.39028 6.8076 6.80139C7.39479 6.21566 8.04228 5.68388 8.72977 5.21861C9.42422 4.74888 10.1682 4.34641 10.9389 4.0193C11.7235 3.68771 12.5455 3.43356 13.3816 3.2637C14.2373 3.08876 15.1184 3 15.9995 3C16.8799 3 17.761 3.08876 18.618 3.2637C19.4527 3.43361 20.2748 3.68776 21.0601 4.0193C21.8307 4.34636 22.574 4.74888 23.2685 5.21861C23.956 5.68388 24.6035 6.21566 25.1919 6.80139C25.7791 7.39028 26.3137 8.03435 26.7777 8.72272C27.2486 9.41495 27.6517 10.1579 27.9767 10.9286C28.3094 11.7115 28.5633 12.533 28.7347 13.3684C28.9105 14.2223 29 15.1022 29 15.982ZM11.2625 5.95454C8.1666 7.41441 5.85594 10.2631 5.13543 13.6962L5.1461 13.6963C5.52552 13.6998 10.1106 13.7422 15.3849 12.3428C13.4634 8.93377 11.4105 6.15173 11.2625 5.95454ZM4.90629 15.6283C5.10305 15.6359 10.5884 15.7588 16.3047 14.0499C16.6227 14.6724 16.9269 15.3038 17.2055 15.9338C17.0595 15.9756 16.9122 16.0188 16.7675 16.0669C10.7763 18.0015 7.7381 23.3838 7.74191 23.3895C5.97336 21.4264 4.89738 18.83 4.89738 15.982C4.89738 15.8998 4.90009 15.8194 4.90283 15.7383L4.90283 15.7382L4.90283 15.7382L4.90283 15.7382L4.90283 15.7382C4.90406 15.7018 4.90529 15.6652 4.90629 15.6283ZM23.3314 7.66161C21.3768 5.94058 18.8103 4.89664 15.9994 4.89664C15.0974 4.89664 14.222 5.00568 13.3834 5.20724L13.4015 5.2314C13.6644 5.58301 15.6873 8.28865 17.5337 11.6741C21.6885 10.1187 23.2779 7.7415 23.3304 7.66308L23.3314 7.66161ZM17.9352 17.7794L17.9622 17.7708C19.5244 21.8251 20.1693 25.2202 20.3337 26.1888C19.0013 26.7547 17.5368 27.0673 15.9994 27.0673C13.4246 27.0673 11.0607 26.1843 9.1759 24.7207C9.19905 24.6705 11.3382 20.0751 17.8885 17.7949C17.9039 17.7893 17.9195 17.7843 17.9352 17.7794ZM22.2033 25.1758C24.6961 23.496 26.4666 20.8287 26.9604 17.739C26.7319 17.6655 23.6259 16.6836 20.0424 17.2573C21.4986 21.2534 22.0903 24.5077 22.2033 25.1758ZM19.1258 14.9335C18.8954 14.3928 18.6459 13.8547 18.3882 13.326C22.7434 11.5498 24.5292 9.00209 24.5724 8.94041L24.573 8.93953C26.1308 10.8278 27.0722 13.2398 27.0976 15.8678C27.0945 15.8672 27.0901 15.8663 27.0845 15.8651C26.7931 15.8045 23.1066 15.0378 19.3657 15.5078C19.2877 15.3177 19.2077 15.1275 19.1258 14.9335Z" fill="#171719"/>
</svg>
