<svg width="32" height="32" viewBox="0 0 32 32" fill="none" xmlns="http://www.w3.org/2000/svg">
<path d="M16 3C8.8318 3 3 8.83174 3 16C3 23.1683 8.8318 29 16 29C23.1682 29 29 23.1682 29 16C29 8.8318 23.1682 3 16 3ZM23.5945 11.4808L26.1796 9.72867C27.0064 11.0659 27.5778 12.5771 27.8237 14.1939L24.7173 14.531C24.5328 13.4328 24.1452 12.4028 23.5945 11.4808ZM8.40547 20.5192L5.82044 22.2713C4.99358 20.9341 4.42224 19.4229 4.17625 17.8061L7.28273 17.469C7.46724 18.5672 7.85475 19.5972 8.40547 20.5192ZM9.29002 12.0275L11.8716 13.7985C11.5201 14.4552 11.32 15.2045 11.32 16C11.32 16.7229 11.4849 17.4078 11.7788 18.0196L9.12239 19.6761C8.53423 18.5802 8.20004 17.3284 8.20004 16C8.20004 14.5502 8.59808 13.1918 9.29002 12.0275ZM16 19.64C13.993 19.64 12.36 18.0072 12.36 16C12.36 13.9928 13.993 12.36 16 12.36C18.007 12.36 19.64 13.9928 19.64 16C19.64 18.0072 18.007 19.64 16 19.64ZM16.52 11.3496V8.21779C18.7867 8.36779 20.7918 9.48991 22.1208 11.1706L19.5383 12.9421C18.7864 12.0733 17.7215 11.4831 16.52 11.3496ZM16.52 7.17578V4.05204C18.1666 4.12281 19.728 4.52782 21.1377 5.2012L19.6745 7.96078C18.704 7.51539 17.6396 7.241 16.52 7.17578ZM15.48 7.17578C14.0338 7.26006 12.6801 7.69361 11.5017 8.39308L9.75664 5.803C11.4365 4.77064 13.3895 4.14199 15.4801 4.05204V7.17578H15.48ZM15.48 8.21779V11.3496C14.2785 11.4831 13.2136 12.0733 12.4617 12.9422L9.87917 11.1707C11.2082 9.48991 13.2133 8.36773 15.48 8.21779ZM12.3314 18.9006C13.0877 19.8553 14.2074 20.509 15.4801 20.6504V23.7822C13.0934 23.6244 10.9968 22.3883 9.67417 20.5577L12.3314 18.9006ZM15.48 24.8242V27.948C13.8334 27.8772 12.272 27.4722 10.8623 26.7988L12.3255 24.0392C13.296 24.4846 14.3604 24.759 15.48 24.8242ZM16.52 24.8242C17.9662 24.7399 19.3199 24.3064 20.4983 23.6069L22.2434 26.197C20.5635 27.2294 18.6105 27.858 16.5199 27.948V24.8242H16.52ZM16.52 23.7822V20.6504C17.7927 20.509 18.9122 19.8552 19.6687 18.9006L22.326 20.5577C21.0032 22.3884 18.9067 23.6244 16.52 23.7822ZM22.8777 19.6761L20.2212 18.0196C20.5151 17.4077 20.68 16.7228 20.68 15.9999C20.68 15.2045 20.48 14.455 20.1284 13.7984L22.71 12.0275C23.402 13.1918 23.8 14.5502 23.8 16.0001C23.8 17.3284 23.4658 18.5802 22.8777 19.6761ZM25.5952 8.8683L23.0098 10.6207C22.3455 9.75708 21.5259 9.01892 20.5926 8.44914L22.0555 5.69019C23.4367 6.50452 24.641 7.5879 25.5952 8.8683ZM8.89502 6.38536L10.6401 8.97538C9.70961 9.68706 8.92374 10.5787 8.33577 11.5985L5.54081 10.2052C6.37533 8.70504 7.52287 7.40196 8.89502 6.38536ZM5.07512 11.1352L7.87058 12.5286C7.41354 13.5949 7.16008 14.7684 7.16008 16C7.16008 16.1459 7.16382 16.2908 7.17092 16.435L4.06568 16.7719C4.04924 16.5166 4.04002 16.2594 4.04002 16C4.04002 14.2686 4.41034 12.6222 5.07512 11.1352ZM6.40479 23.1317L8.99021 21.3793C9.65448 22.2429 10.4741 22.9811 11.4074 23.5509L9.94445 26.3098C8.56332 25.4955 7.35898 24.4121 6.40479 23.1317ZM23.105 25.6146L21.3599 23.0246C22.2904 22.3129 23.0763 21.4213 23.6642 20.4015L26.4592 21.7947C25.6247 23.295 24.4771 24.598 23.105 25.6146ZM26.9249 20.8648L24.1294 19.4714C24.5865 18.4051 24.8399 17.2316 24.8399 16C24.8399 15.8541 24.8362 15.7092 24.8291 15.565L27.9343 15.2281C27.9508 15.4834 27.96 15.7406 27.96 16C27.96 17.7314 27.5897 19.3778 26.9249 20.8648Z" fill="#171719"/>
</svg>
