<svg width="40" height="40" viewBox="0 0 40 40" fill="none" xmlns="http://www.w3.org/2000/svg">
<path d="M19.6534 15.276L19.7054 16.1338L18.8383 16.0288C15.6822 15.6261 12.9249 14.2606 10.5839 11.9671L9.43933 10.8292L9.14453 11.6695C8.52024 13.5428 8.91909 15.5211 10.2197 16.8516C10.9133 17.5869 10.7573 17.692 9.56072 17.2543C9.14453 17.1142 8.78036 17.0092 8.74568 17.0617C8.62429 17.1843 9.04048 18.7774 9.36996 19.4077C9.82084 20.283 10.7399 21.1409 11.7457 21.6486L12.5955 22.0513L11.5897 22.0688C10.6185 22.0688 10.5839 22.0863 10.6879 22.4539C11.0347 23.5919 12.4047 24.7999 13.9307 25.3251L15.0059 25.6928L14.0695 26.253C12.6822 27.0583 11.0521 27.5135 9.42199 27.5485C8.64163 27.566 8 27.6361 8 27.6886C8 27.8636 10.1156 28.844 11.3469 29.2292C15.0406 30.3672 19.4279 29.877 22.7228 27.9337C25.0639 26.5506 27.4049 23.802 28.4974 21.1409C29.087 19.7228 29.6767 17.1318 29.6767 15.8887C29.6767 15.0834 29.7287 14.9784 30.6998 14.0155C31.2721 13.4553 31.8096 12.8425 31.9137 12.6674C32.0871 12.3348 32.0698 12.3348 31.1853 12.6324C29.7113 13.1576 29.5032 13.0876 30.2316 12.2998C30.7692 11.7396 31.4108 10.7241 31.4108 10.4265C31.4108 10.374 31.1507 10.4615 30.8559 10.6191C30.5437 10.7942 29.8501 11.0568 29.3298 11.2143L28.3934 11.512L27.5437 10.9342C27.0755 10.6191 26.4165 10.2689 26.0697 10.1639C25.1853 9.91881 23.8326 9.95382 23.0349 10.2339C20.8673 11.0218 19.4973 13.0526 19.6534 15.276Z" fill="#171719"/>
</svg>
