<svg width="40" height="40" viewBox="0 0 40 40" fill="none" xmlns="http://www.w3.org/2000/svg">
<circle cx="19.75" cy="19.75" r="11.25" stroke="#171719" stroke-width="1.5"/>
<path d="M26.3846 19.75C26.3846 22.9478 25.5855 25.8069 24.333 27.8422C23.073 29.8897 21.4316 31 19.75 31C18.0684 31 16.427 29.8897 15.167 27.8422C13.9145 25.8069 13.1154 22.9478 13.1154 19.75C13.1154 16.5522 13.9145 13.6931 15.167 11.6578C16.427 9.61035 18.0684 8.5 19.75 8.5C21.4316 8.5 23.073 9.61035 24.333 11.6578C25.5855 13.6931 26.3846 16.5522 26.3846 19.75Z" stroke="#171719" stroke-width="1.5"/>
<path d="M19.75 8.67308V30.8269" stroke="#171719" stroke-width="1.5"/>
<path d="M30.8269 19.75L8.67307 19.75" stroke="#171719" stroke-width="1.5"/>
</svg>
