<svg width="32" height="32" viewBox="0 0 32 32" fill="none" xmlns="http://www.w3.org/2000/svg">
<path d="M15.6245 10.7157L15.6808 11.645L14.7415 11.5312C11.3224 11.095 8.33535 9.61563 5.79918 7.13107L4.55927 5.89828L4.2399 6.80865C3.56359 8.83802 3.99568 10.9812 5.40466 12.4226C6.15612 13.2192 5.98704 13.333 4.69078 12.8588C4.2399 12.7071 3.84539 12.5933 3.80782 12.6502C3.67631 12.783 4.12719 14.5089 4.48413 15.1917C4.97258 16.14 5.96826 17.0693 7.05787 17.6193L7.9784 18.0555L6.88879 18.0745C5.83675 18.0745 5.79918 18.0935 5.9119 18.4918C6.28763 19.7246 7.77175 21.0332 9.42496 21.6022L10.5897 22.0005L9.57525 22.6074C8.07234 23.4798 6.30641 23.973 4.54049 24.0109C3.6951 24.0299 3 24.1057 3 24.1626C3 24.3523 5.29194 25.4144 6.62578 25.8316C10.6273 27.0644 15.3803 26.5334 18.9497 24.4281C21.4859 22.9298 24.022 19.9521 25.2056 17.0693C25.8443 15.533 26.483 12.7261 26.483 11.3795C26.483 10.507 26.5394 10.3932 27.5914 9.3501C28.2114 8.74319 28.7938 8.07938 28.9065 7.88972C29.0944 7.52936 29.0756 7.52936 28.1175 7.85178C26.5206 8.42077 26.2952 8.3449 27.0842 7.49143C27.6666 6.88451 28.3617 5.78448 28.3617 5.46206C28.3617 5.40516 28.0799 5.49999 27.7605 5.67068C27.4224 5.86034 26.6709 6.14484 26.1073 6.31553L25.0928 6.63795L24.1723 6.01207C23.6651 5.67068 22.9512 5.29136 22.5755 5.17757C21.6174 4.91204 20.152 4.94997 19.2878 5.25343C16.9395 6.1069 15.4554 8.30697 15.6245 10.7157Z" fill="#171719"/>
</svg>
