<?xml version="1.0" encoding="UTF-8"?>
<svg width="32px" height="32px" viewBox="0 0 32 32" version="1.1" xmlns="http://www.w3.org/2000/svg" xmlns:xlink="http://www.w3.org/1999/xlink">
    <!-- Generator: Sketch 52.3 (67297) - http://www.bohemiancoding.com/sketch -->
    <title>icon-twitter</title>
    <desc>Created with Sketch.</desc>
    <g id="icon-twitter" stroke="none" stroke-width="1" fill="none" fill-rule="evenodd">
        <path d="M32,5.19631603 C30.824206,5.73846185 29.5582553,6.10509215 28.230322,6.26890588 C29.5864293,5.42643567 30.626988,4.09057423 31.1172153,2.49924148 C29.8475087,3.27930658 28.4444447,3.84680405 26.9455893,4.15102925 C25.7510127,2.82686892 24.0436693,2 22.1541353,2 C18.530962,2 15.5914773,5.0520044 15.5914773,8.8158179 C15.5914773,9.35016275 15.6478253,9.86890565 15.7605213,10.3681471 C10.3041613,10.0834233 5.46762933,7.3726976 2.227622,3.24420388 C1.66226467,4.25438795 1.33920267,5.42643567 1.33920267,6.6745397 C1.33920267,9.03813658 2.49809267,11.1248106 4.25990467,12.3475624 C3.18553733,12.3144097 2.171274,12.0043336 1.28473333,11.4972912 L1.28473333,11.5811485 C1.28473333,14.884724 3.54804267,17.6403035 6.55326667,18.2643552 C6.00293467,18.4242687 5.42255067,18.5042252 4.82338467,18.5042252 C4.40077467,18.5042252 3.98755667,18.4632723 3.587486,18.3833152 C4.423314,21.0901407 6.846276,23.061755 9.72002133,23.1144097 C7.473616,24.9436618 4.64119267,26.033803 1.56647267,26.033803 C1.036802,26.033803 0.512766,26.0026004 0,25.9401953 C2.905676,27.8708559 6.35792667,29 10.0637433,29 C22.1409873,29 28.7430887,18.6153849 28.7430887,9.60758413 C28.7430887,9.31115922 28.737454,9.01473433 28.726184,8.72416032 C30.0090393,7.76273015 31.12285,6.56338002 32,5.19631603" id="Twitter" fill="#FFFFFF"></path>
    </g>
</svg>