<svg width="40" height="40" viewBox="0 0 40 40" fill="none" xmlns="http://www.w3.org/2000/svg">
<path d="M10.8459 13.978C10.8758 13.6764 10.7634 13.3784 10.5434 13.1755L8.30252 10.4127V10H15.2605L20.6387 22.0714L25.3669 10H32V10.4127L30.084 12.2928C29.9189 12.4216 29.8369 12.6334 29.8711 12.843V26.657C29.8369 26.8666 29.9189 27.0784 30.084 27.2072L31.9552 29.0873V29.5H22.5434V29.0873L24.4818 27.1614C24.6723 26.9665 24.6723 26.9092 24.6723 26.6111V15.4453L19.2829 29.4541H18.5546L12.2801 15.4453V24.8342C12.2278 25.229 12.3559 25.6264 12.6275 25.9118L15.1485 29.0414V29.4541H8V29.0414L10.521 25.9118C10.7906 25.6259 10.9112 25.2258 10.8459 24.8342V13.978Z" fill="#171719"/>
</svg>
